<mxfile host="app.diagrams.net" modified="2024-07-04T19:52:45.803Z" agent="Mozilla/5.0 (Windows NT 10.0; Win64; x64) AppleWebKit/537.36 (KHTML, like Gecko) Chrome/125.0.0.0 Safari/537.36 OPR/111.0.0.0" etag="fPMb4rcU3JpeGfFZzJCB" version="24.6.4" type="device">
  <diagram name="PÃ¡gina-1" id="IJn38wIQhhthBFGY1MWs">
    <mxGraphModel dx="952" dy="509" grid="1" gridSize="10" guides="1" tooltips="1" connect="1" arrows="1" fold="1" page="1" pageScale="1" pageWidth="1169" pageHeight="1200" math="0" shadow="0">
      <root>
        <mxCell id="0" />
        <mxCell id="1" parent="0" />
        <mxCell id="Y0Gdx1lhaR-PjRliM8U3-7" style="rounded=0;orthogonalLoop=1;jettySize=auto;html=1;endArrow=none;endFill=0;" edge="1" parent="1" source="Y0Gdx1lhaR-PjRliM8U3-1" target="Y0Gdx1lhaR-PjRliM8U3-5">
          <mxGeometry relative="1" as="geometry" />
        </mxCell>
        <mxCell id="Y0Gdx1lhaR-PjRliM8U3-13" style="edgeStyle=none;shape=connector;rounded=0;orthogonalLoop=1;jettySize=auto;html=1;strokeColor=default;align=center;verticalAlign=middle;fontFamily=Helvetica;fontSize=11;fontColor=default;labelBackgroundColor=default;endArrow=none;endFill=0;" edge="1" parent="1" source="Y0Gdx1lhaR-PjRliM8U3-1" target="Y0Gdx1lhaR-PjRliM8U3-12">
          <mxGeometry relative="1" as="geometry" />
        </mxCell>
        <mxCell id="Y0Gdx1lhaR-PjRliM8U3-1" value="&lt;b&gt;&amp;lt;&amp;lt;device&amp;gt;&amp;gt;&lt;/b&gt;&lt;div&gt;&lt;b&gt;Web server&lt;/b&gt;&lt;/div&gt;&lt;div&gt;&lt;b&gt;&lt;br&gt;&lt;/b&gt;&lt;/div&gt;" style="verticalAlign=top;align=center;spacingTop=8;spacingLeft=2;spacingRight=12;shape=cube;size=10;direction=south;fontStyle=0;html=1;whiteSpace=wrap;textShadow=0;gradientColor=none;darkOpacity=0.5;darkOpacity2=0.5;" vertex="1" parent="1">
          <mxGeometry x="160" y="150" width="140" height="110" as="geometry" />
        </mxCell>
        <mxCell id="Y0Gdx1lhaR-PjRliM8U3-2" value="&amp;lt;&amp;lt;artifact&amp;gt;&amp;gt;&lt;div&gt;Website&lt;/div&gt;" style="rounded=1;whiteSpace=wrap;html=1;fontStyle=1" vertex="1" parent="1">
          <mxGeometry x="190" y="200" width="80" height="40" as="geometry" />
        </mxCell>
        <mxCell id="Y0Gdx1lhaR-PjRliM8U3-5" value="&lt;b&gt;&amp;lt;&amp;lt;device&amp;gt;&amp;gt;&lt;/b&gt;&lt;div&gt;&lt;b&gt;:DB Server&lt;/b&gt;&lt;/div&gt;&lt;div&gt;&lt;b&gt;&lt;br&gt;&lt;/b&gt;&lt;/div&gt;" style="verticalAlign=top;align=center;spacingTop=8;spacingLeft=2;spacingRight=12;shape=cube;size=10;direction=south;fontStyle=0;html=1;whiteSpace=wrap;textShadow=0;gradientColor=none;darkOpacity=0.5;darkOpacity2=0.5;" vertex="1" parent="1">
          <mxGeometry x="390" y="40" width="140" height="110" as="geometry" />
        </mxCell>
        <mxCell id="Y0Gdx1lhaR-PjRliM8U3-6" value="&amp;lt;&amp;lt;artifact&amp;gt;&amp;gt;&lt;div&gt;SQLite DB&lt;/div&gt;" style="rounded=1;whiteSpace=wrap;html=1;fontStyle=1" vertex="1" parent="1">
          <mxGeometry x="420" y="90" width="80" height="40" as="geometry" />
        </mxCell>
        <mxCell id="Y0Gdx1lhaR-PjRliM8U3-12" value="&lt;b&gt;&amp;lt;&amp;lt;device&amp;gt;&amp;gt;&lt;/b&gt;&lt;div&gt;&lt;b&gt;:UserClient&lt;/b&gt;&lt;/div&gt;&lt;div&gt;&lt;b&gt;&lt;br&gt;&lt;/b&gt;&lt;/div&gt;" style="verticalAlign=top;align=center;spacingTop=8;spacingLeft=2;spacingRight=12;shape=cube;size=10;direction=south;fontStyle=0;html=1;whiteSpace=wrap;textShadow=0;gradientColor=none;darkOpacity=0.5;darkOpacity2=0.5;fontFamily=Helvetica;fontSize=11;fontColor=default;labelBackgroundColor=default;" vertex="1" parent="1">
          <mxGeometry x="410" y="190" width="230" height="155" as="geometry" />
        </mxCell>
        <mxCell id="Y0Gdx1lhaR-PjRliM8U3-3" value="&lt;b&gt;&amp;lt;&amp;lt;device&amp;gt;&amp;gt;&lt;/b&gt;&lt;div&gt;&lt;b&gt;:Browser&lt;/b&gt;&lt;/div&gt;&lt;div&gt;&lt;b&gt;&lt;br&gt;&lt;/b&gt;&lt;/div&gt;" style="verticalAlign=top;align=center;spacingTop=8;spacingLeft=2;spacingRight=12;shape=cube;size=10;direction=south;fontStyle=0;html=1;whiteSpace=wrap;textShadow=0;gradientColor=none;darkOpacity=0.5;darkOpacity2=0.5;" vertex="1" parent="1">
          <mxGeometry x="455" y="235" width="140" height="110" as="geometry" />
        </mxCell>
        <mxCell id="Y0Gdx1lhaR-PjRliM8U3-4" value="&amp;lt;&amp;lt;artifact&amp;gt;&amp;gt;&lt;div&gt;HTML 5&lt;/div&gt;" style="rounded=1;whiteSpace=wrap;html=1;fontStyle=1" vertex="1" parent="1">
          <mxGeometry x="475" y="295" width="80" height="40" as="geometry" />
        </mxCell>
      </root>
    </mxGraphModel>
  </diagram>
</mxfile>
